<?xml version="1.0" encoding="utf-8"?>
<!-- Generator: Adobe Illustrator 20.0.0, SVG Export Plug-In . SVG Version: 6.00 Build 0)  -->
<svg version="1.1" id="Layer_1" xmlns="http://www.w3.org/2000/svg" xmlns:xlink="http://www.w3.org/1999/xlink" x="0px" y="0px"
	 viewBox="0 0 304.4 560" style="enable-background:new 0 0 304.4 560;" xml:space="preserve" height="200px">
<style type="text/css">
	.st0{fill:#FFFFFF;fill-opacity:0;}
	.st1{fill:#500000;stroke:#7E0209;stroke-miterlimit:10;}
	.st2{fill:#7E0209;stroke:#7E0209;stroke-miterlimit:10;}
	.st3{fill:#7E0209;}
</style>
<g>
	<path class="st1" d="M221.3,381.9"/>
	<g>
		<path class="st2" d="M203.7,325.9c0.2,0.2,0.3,0.1,0.3,0.1c0,0,0.1-0.1,0.1-0.1c0.2-0.6,15.8-256.3,17.2-268.5
			c0.1-0.5,0.1-0.8,0.1-0.9c-1.7-0.5-40.1,195.2-31.5,214.4c1.5,3.4,7.4-3.2,7.4-3.3c0,0-4,1.5-4,1.5c-2.2-3.1,3.9-8.1-1.4-11.8
			c-3.4-2.3-9.1-6.2-17-6.2h0c-7.9,0-13.6,3.9-17,6.2c-5.3,3.6-8.9,8-11.1,11.1c-0.1,0.1-0.3,0.1-0.4-0.1
			c-8.2-19.9-19.5-43.4-35-67.8c-17.5-27.6-35.7-44.9-51-60.3c-0.2-0.2-0.2-0.2,0,0c15.4,24.2,32.1,50.5,48.1,85.8
			c16.4,36.2,28.3,70.3,37,99.8c0,0.1,0.1,0.1,0.1,0.1c0,0,0.1,0.1,0.3-0.1c0.5-0.4,19.8-40.4,28.2-40.3
			C182.4,285.7,203.2,325.5,203.7,325.9z"/>
	</g>
	<path class="st2" d="M175.2,363.2c1.6,0.2,7.6-1.2,13.9-6.6c2.6-2.2,4.4-4.8,5.6-7.2c2.3-4.4,2.8-9.4,1.7-14.2
		c-0.9-4-2.4-8.7-4.8-13.7c-5.4-11.2-12.9-20-16.8-23.6l0,0c-3.9,3.6-11.4,12.4-16.8,23.6c-2.4,5-3.9,9.7-4.8,13.7
		c-1.1,4.8-0.6,9.8,1.7,14.2c1.3,2.4,3.1,5,5.6,7.2C167,362,173.5,363.4,175.2,363.2"/>
	<path class="st2" d="M174.8,389.4c2.5-0.1,5.9-0.5,9.8-1.9c4.9-1.8,7.3-3.4,5.2-5.6c-16.4-16.6-0.1-0.3,0,0
		c6.1,13.7,19.8,103.5,31.2,135.4c0.1,0.2,0.4,0.1,0.4-0.1c-1.4-15.9-13.6-149.1-17-165.7c-0.1-0.4-0.6-0.5-0.8-0.1
		c-1.8,3.8-5.6,10-12.7,15.2c-6.4,4.8-12.1,5.1-15.5,5.1l0,0c-3.4,0-9.7-0.3-16.1-5.1c-7-5.2-10.8-11.6-12.7-15.4
		c-0.2-0.4-0.7-0.3-0.8,0.1c-3.6,17.8-8.6,38.3-15.4,60.1c-6.1,19.5-12.5,36.2-18.5,50.2c-0.2,0.5,0.5,0.8,0.8,0.4
		c4.7-7.9,12.7-22.5,20.5-37.2c7.9-15,14.8-29.7,21-43.6c0.1-0.3,0.4-0.3,0.7-0.2c2.3,2.1,5.8,4.8,10.7,6.6c3.9,1.4,7.3,1.9,9.8,1.9
		L174.8,389.4z"/>
	<g>
		<path class="st3" d="M157.9,238.5c-12.4,0-22.4-10.1-22.4-22.4s10.1-22.4,22.4-22.4s22.4,10.1,22.4,22.4S170.2,238.5,157.9,238.5z
			"/>
		<path class="st3" d="M157.9,194.2c12.1,0,21.9,9.8,21.9,21.9S170,238,157.9,238s-21.9-9.8-21.9-21.9S145.8,194.2,157.9,194.2
			 M157.9,193.2c-12.7,0-22.9,10.3-22.9,22.9c0,12.7,10.3,22.9,22.9,22.9s22.9-10.3,22.9-22.9C180.8,203.4,170.5,193.2,157.9,193.2
			L157.9,193.2z"/>
	</g>
</g>
</svg>
